<svg width="840" height="389" viewBox="0 0 840 389" fill="none" xmlns="http://www.w3.org/2000/svg">
<path d="M198.226 376.989C195.081 375.811 194.202 374.658 194.948 372.692C195.295 371.781 195.959 371.036 196.425 371.036C196.892 371.036 198.933 372.11 200.962 373.422C202.99 374.734 205.471 376.106 206.474 376.47L208.298 377.133L206.054 377.181C204.82 377.208 203.009 377.347 202.031 377.489C201.052 377.631 199.339 377.406 198.226 376.988V376.989ZM191.089 370.944C190.497 370.613 189.509 370.501 188.895 370.696C188.121 370.942 187.524 370.576 186.951 369.505C186.497 368.655 185.682 367.807 185.141 367.621C183.899 367.194 181.295 362.973 179.846 359.038C179.115 357.05 178.13 355.676 176.962 355.011C174.889 353.831 174.741 353.296 176.345 352.787C178.181 352.204 178.523 348.965 176.977 346.793C176.24 345.757 175.852 344.54 176.074 343.961C176.336 343.277 175.612 342.077 173.86 340.29C171.648 338.035 171.239 337.215 171.14 334.839C171.076 333.3 170.702 331.653 170.308 331.179C169.813 330.582 169.712 328.437 169.979 324.196C170.269 319.6 170.1 316.764 169.301 312.81C168.114 306.939 167.508 296 167.816 286.02C167.882 283.891 167.606 280.967 167.204 279.524C166.223 276.008 161.709 271.57 156.13 268.637C152.14 266.539 151.579 266.001 150.019 262.778C149.074 260.827 147.269 257.91 146.007 256.296C144.745 254.683 143.374 252.314 142.959 251.031C141.642 246.961 139.32 242.871 137.737 241.833C136.895 241.281 135.935 239.845 135.603 238.642C135.066 236.696 135.207 236.153 136.888 233.708C138.711 231.057 138.732 230.949 137.501 230.627C134.474 229.835 135.747 225.787 141.18 218.927C144.79 214.367 145.848 210.894 144.848 206.881C144.467 205.352 144.125 203.752 144.089 203.326C144.053 202.901 143.782 202.552 143.486 202.552C143.191 202.552 143.247 201.994 143.613 201.311C144.175 200.259 144.033 199.958 142.681 199.342C140.71 198.443 137.734 199.331 137.723 200.822C137.709 202.609 136.923 202.741 134.334 201.39C132.947 200.666 131.506 200.075 131.132 200.075C130.758 200.075 129.304 199.085 127.901 197.875C126.498 196.666 125.002 195.401 124.577 195.064C124.151 194.727 123.803 193.808 123.803 193.023C123.803 192.237 123.256 191.1 122.588 190.494C121.92 189.889 121.054 188.427 120.664 187.244C120.152 185.69 119.768 185.282 119.279 185.771C118.259 186.791 116.749 186.597 113.085 184.976C111.169 184.128 109.173 182.68 108.376 181.559C107.615 180.49 106.16 179.185 105.144 178.659C103.468 177.791 103.048 177.798 100.606 178.731L97.9144 179.76L89.6574 175.756C84.5783 173.293 80.6365 170.944 79.4156 169.652C77.5226 167.648 77.4613 167.431 78.0912 164.948C78.6683 162.673 78.5703 161.969 77.3152 159.374C76.5252 157.741 74.799 155.233 73.4792 153.8C72.1595 152.367 71.2296 150.952 71.4128 150.655C71.5961 150.359 70.6664 148.359 69.347 146.212C67.848 143.773 66.7902 141.161 66.5274 139.249C66.1905 136.798 65.798 136.048 64.5554 135.481C63.2382 134.881 62.8698 134.957 62.1156 135.988C61.0534 137.44 61.3554 138.973 63.7041 144.052C64.6585 146.116 65.6449 149.176 65.896 150.852C66.1471 152.527 66.8888 154.95 67.5442 156.236C69.0966 159.281 68.0942 159.227 65.6462 156.134C64.2023 154.31 63.8124 153.309 64.0993 152.165C64.4057 150.944 64.104 150.355 62.6033 149.245C60.3273 147.561 59.8456 146.475 60.6817 144.912C61.1692 144 60.9457 143 59.7075 140.555C58.4502 138.072 58.1872 136.87 58.4985 135.026C59.0074 132.012 57.656 129.284 55.1367 128.239C53.6822 127.636 53.1808 126.962 52.8844 125.21C52.6747 123.97 52.2731 122.052 51.992 120.948C51.6995 119.799 51.7208 118.791 52.0417 118.592C52.3502 118.402 52.1484 117.552 51.5932 116.704C50.7755 115.455 50.7195 114.864 51.2984 113.593C51.6915 112.729 51.8399 111.743 51.6281 111.4C51.4164 111.057 51.944 110.033 52.8007 109.123C53.6574 108.214 54.7979 106.401 55.3351 105.094C55.8724 103.787 57.5282 101.364 59.0146 99.7094C60.501 98.0551 62.3854 95.1571 63.2021 93.2696C64.3358 90.6496 65.0003 89.8352 66.0111 89.8271C66.7393 89.8216 67.2964 90.165 67.2491 90.5908C67.0521 92.3655 68.4544 91.8187 70.0294 89.5068C70.9578 88.1441 71.4588 86.9362 71.1426 86.8227C70.8264 86.7091 70.5677 86.1964 70.5677 85.6834C70.5677 85.1704 69.2863 83.5043 67.72 81.9811C65.1222 79.4547 64.9554 79.1197 65.8192 78.1646C66.5191 77.3907 66.6014 76.8229 66.1347 75.9884C65.3145 74.5218 66.6087 71.2375 68.012 71.2243C68.5916 71.2187 68.7571 71.0213 68.4012 70.7597C67.6028 70.1727 67.2411 68.8397 67.3532 66.8978C67.5324 63.7961 66.8541 62.4987 64.5497 61.5352C63.3067 61.0155 61.4101 59.919 60.3349 59.0984C59.2598 58.2778 57.8957 57.6064 57.3037 57.6064C56.7116 57.6064 54.0204 57.0425 51.3232 56.3534C46.9869 55.2455 46.2226 55.2017 44.7204 55.9754C41.6075 57.5786 38.3094 58.232 36.9648 57.512C35.9563 56.9719 34.8557 57.3054 31.0178 59.3143C28.4276 60.6701 25.3334 61.9897 24.1418 62.2469C22.9502 62.504 20.6698 63.3727 19.0741 64.1772C14.5482 66.4593 8.06484 68.7597 6.27149 68.7198C5.11409 68.6941 5.89659 68.1861 8.976 66.9641C14.2095 64.8874 19.5871 62.1829 20.0845 61.3775C20.6971 60.3856 19.3673 60.0297 17.7698 60.758C16.5937 61.2943 15.8688 61.2441 14.5116 60.5325L12.7661 59.6173L14.6648 58.6347C16.8113 57.524 17.4865 56.2674 16.9933 54.3012C16.5157 52.3969 19.1492 50.9977 24.8223 50.1415C27.8706 49.6815 30.1879 48.9157 31.7481 47.8529C34.4993 45.9788 34.0266 44.5624 31.0603 45.7919C29.6561 46.3739 28.6333 46.3803 26.5537 45.82C24.0264 45.139 23.9364 45.0418 25.0668 44.2146C26.9583 42.8306 30.8703 41.9982 33.4406 42.4327C35.067 42.7077 36.3992 42.5152 37.7665 41.8077L39.7423 40.7853L38.4417 39.3999C37.7263 38.638 37.1411 37.8508 37.1411 37.6505C37.1411 37.0758 40.8676 35.9264 42.7308 35.9264C43.6609 35.9264 46.2105 35.2527 48.3966 34.4293C50.5827 33.6059 55.6265 32.4818 59.6049 31.9312C66.0575 31.0383 67.4238 31.0274 72.2624 31.8302C75.2456 32.3252 79.3577 32.9156 81.4005 33.1421C83.4432 33.3687 87.0588 34.0878 89.4352 34.7402C94.9543 36.2555 98.5491 36.237 104.715 34.6617C107.438 33.966 110.189 33.5634 110.83 33.7668C111.471 33.9703 112.56 33.8341 113.251 33.4642C114.202 32.9546 114.94 33.0162 116.298 33.7189C117.525 34.3537 119.039 34.5349 121.101 34.2935C123.276 34.0389 125.181 34.3026 127.962 35.2434C130.079 35.9598 132.43 36.5459 133.187 36.5459C134.527 36.5459 134.532 36.5686 133.361 37.4308C132.213 38.2762 132.21 38.3352 133.288 38.7531C133.908 38.9938 136.062 39.0184 138.075 38.808C141.709 38.4279 141.74 38.4386 142.754 40.3995L143.774 42.3737L145.098 40.7118C145.859 39.7567 147.668 38.6748 149.35 38.1682C151.892 37.4025 152.664 37.405 155.218 38.1876C157.02 38.74 159.178 38.9412 160.794 38.7077C162.851 38.4103 163.807 38.5955 165.149 39.5521C166.844 40.7597 166.891 40.7603 168.394 39.5946C169.233 38.944 170.959 38.1218 172.23 37.7675C175.273 36.9192 176.305 35.1116 174.477 33.8309C173.185 32.9252 173.242 32.8561 176.638 31.1892C179.171 29.946 180.312 29.6637 180.806 30.1578C181.3 30.6518 181.295 31.1953 180.788 32.1434C179.923 33.7593 180.999 36.2018 182.347 35.6842C182.832 35.4981 183.635 35.5023 184.133 35.6935C184.915 35.9938 184.903 36.2484 184.041 37.5641C181.661 41.199 186.997 40.1691 190.609 36.2964C192.078 34.722 194.353 34.2446 196.486 35.0636C197.864 35.5925 197.734 36.0255 195.454 38.5282C192.735 41.5107 191.344 42.1207 187.262 42.1207C185.288 42.1207 182.959 42.5485 181.873 43.1101C180.371 43.8876 179.638 43.9523 178.453 43.412C176.244 42.4047 175.475 43.2431 177.06 44.9312L178.412 46.3722L175.713 47.1387C174.229 47.5603 171.761 47.946 170.229 47.9958C168.007 48.068 167.442 48.3094 167.439 49.1882C167.436 49.9403 166.355 50.7317 164.034 51.681C156.515 54.7568 150.136 60.3027 152.445 61.7567C152.878 62.0292 153.565 63.0109 153.972 63.9384C154.44 65.0064 155.343 65.7513 156.435 65.97C157.383 66.1599 159.829 67.1388 161.872 68.1454C163.915 69.152 166.422 70.1579 167.443 70.3806C170.255 70.9939 170.28 71.0584 168.97 74.3832C167.85 77.2276 167.827 77.6335 168.695 79.3137C169.216 80.3207 169.983 81.1347 170.399 81.1226C172.428 81.0639 174.33 79.1907 175.511 76.0879C176.638 73.1305 177.151 72.5789 180.384 70.851C185.155 68.301 187.139 65.7895 186.61 62.9693C186.266 61.1324 186.445 60.7013 188.016 59.5817C189.006 58.8761 190.317 57.1875 190.929 55.8291C192.297 52.7928 194.496 51.7403 198.204 52.3468C201.492 52.8847 205.38 54.9736 205.85 56.4544C206.042 57.0622 205.882 58.1539 205.494 58.8803C204.905 59.9804 205.016 60.445 206.159 61.6624L207.531 63.1238L209.772 61.9616C211.004 61.3225 212.979 60.0756 214.161 59.1909L216.309 57.5822L216.814 58.9476C217.091 59.6985 217.17 60.6997 216.989 61.1725C216.807 61.6453 216.948 62.5731 217.302 63.2343C217.7 63.9781 217.731 64.8195 217.383 65.441C216.991 66.1419 217.253 67.2064 218.25 68.9615C219.677 71.4759 219.677 71.4779 218.423 72.3564C216.774 73.5123 217.832 74.7383 219.643 73.7688C221.44 72.8061 223.498 72.9313 224.768 74.0806C226.644 75.7797 225.083 77.8123 220.104 80.1567C214.687 82.7068 212.273 83.2119 205.203 83.2745C199.982 83.3207 199.291 83.4873 194.216 85.922C191.237 87.351 188.799 88.7654 188.799 89.0651C188.799 90.3433 189.738 90.232 193.339 88.5272C195.461 87.5227 198.196 86.7202 199.499 86.7199C201.724 86.7194 201.805 86.7883 201.11 88.0875C200.708 88.8399 199.84 89.8921 199.181 90.4257C198.146 91.2646 198.085 91.6188 198.733 93.0421C199.705 95.1766 202.244 96.2038 205.28 95.6912L207.679 95.286L205.834 96.5597C204.819 97.2602 203.148 98.0151 202.12 98.2373C201.092 98.4594 198.979 99.2823 197.425 100.066C195.847 100.861 194.262 101.282 193.836 101.019C192.857 100.413 193.891 99.504 197.073 98.1733C199.904 96.9898 199.452 95.7325 196.401 96.3052C195.213 96.5282 191.36 97.9805 187.839 99.5325C182.343 101.955 181.384 102.595 181.064 104.052C180.671 105.844 179.329 106.692 174.611 108.128C173.106 108.586 171.156 109.693 170.278 110.588C169.4 111.484 167.718 112.824 166.541 113.567C165.364 114.309 164.237 115.611 164.036 116.459C163.706 117.856 163.629 117.889 163.216 116.813C162.442 114.796 161.274 116.768 161.207 120.207C161.138 123.731 159.353 126.134 155.439 127.975C151.425 129.862 145.714 134.321 144.557 136.471C143.535 138.37 143.492 139.109 144.122 143.988C144.709 148.54 144.674 149.682 143.901 151.178C143.324 152.294 142.651 152.828 142.091 152.613C140.762 152.103 139.138 146.634 139.593 144.205C139.909 142.518 139.7 141.879 138.444 140.698C137.431 139.746 136.497 139.384 135.702 139.637C135.039 139.847 133.164 139.448 131.534 138.748C129.035 137.677 128.238 137.587 126.455 138.176C125.246 138.575 124.044 139.522 123.651 140.386C123.065 141.672 122.678 141.837 121.061 141.489C120.016 141.264 118.408 140.695 117.489 140.225C115.224 139.068 113.956 139.148 111.413 140.612C110.227 141.294 107.806 142.601 106.033 143.515C103.997 144.565 102.597 145.761 102.23 146.765C101.911 147.638 100.77 151.042 99.694 154.329L97.738 160.306L98.737 164.164C100.573 171.252 103.126 173.374 108.447 172.232C112.459 171.372 114.868 169.627 115.753 166.942C116.316 165.237 116.922 164.673 118.738 164.169C121.471 163.409 122.613 163.381 123.662 164.048C124.528 164.598 124.224 165.503 120.346 173.905C117.684 179.671 117.876 180.187 122.435 179.529C126.589 178.929 130.386 179.389 130.829 180.546C131.002 180.997 130.721 184.039 130.204 187.307C129.28 193.152 129.287 193.283 130.617 195.437C131.361 196.642 132.755 198.034 133.716 198.531C135.249 199.324 135.731 199.322 137.66 198.516C140.726 197.234 142.391 197.369 144.52 199.074C146.223 200.437 146.464 200.476 147.802 199.598C148.596 199.078 149.679 197.787 150.209 196.731C151.404 194.348 153.418 192.673 155.11 192.655C155.816 192.648 157.049 191.945 157.849 191.093C159.472 189.363 162.332 188.8 160.934 190.485C159.761 191.899 159.091 196.447 159.847 197.861C160.476 199.038 160.527 199.031 161.672 197.615C162.488 196.608 162.652 195.961 162.206 195.515C161.143 194.452 161.463 193.567 163.442 192.104C165.496 190.584 167.084 190.74 168.857 192.635C170.156 194.025 177.095 195.903 179.084 195.404C182.112 194.643 190.295 199.622 193.37 204.096C194.834 206.226 199.511 208.37 201.567 207.853C205.797 206.791 211.597 211.032 212.953 216.18C213.357 217.713 213.966 219.141 214.307 219.353C215.21 219.916 213.857 222.14 210.9 224.956C209.01 226.754 208.559 227.529 209.091 228.06C209.622 228.592 210.496 228.126 212.594 226.191C215.645 223.376 216.664 223.091 218.192 224.62C219.122 225.551 219.094 225.74 217.819 227.098C217.06 227.907 216 228.586 215.464 228.607C214.898 228.63 215.127 228.902 216.007 229.254C217.216 229.737 217.847 229.601 219.102 228.586C222.37 225.944 223.139 225.817 226.042 227.44C227.929 228.495 228.685 229.298 228.59 230.148C228.326 232.51 228.882 233.033 230.519 231.96C231.819 231.107 232.712 231.067 237.064 231.663C241.693 232.297 242.299 232.55 244.52 234.772C246.169 236.422 248.024 237.507 250.353 238.185C253.482 239.095 253.822 239.373 254.389 241.481C255.211 244.538 254.248 247.93 251.641 251.152C250.528 252.529 249.163 254.549 248.608 255.643C248.054 256.736 246.874 258.357 245.987 259.244C244.486 260.746 244.402 261.122 244.777 264.69C245.508 271.658 242.101 284.66 238.815 287.441C237.746 288.346 236.83 288.558 235.134 288.296C233.74 288.08 232.707 288.219 232.435 288.66C232.192 289.053 230.84 289.882 229.431 290.502C228.022 291.122 225.923 292.437 224.768 293.425C222.769 295.134 222.702 295.323 223.374 297.363C224.15 299.715 223.628 302.501 221.965 304.876C221.428 305.644 220.988 306.95 220.988 307.779C220.988 308.608 220.342 310.149 219.553 311.203C218.763 312.257 217.241 314.671 216.169 316.566C213.532 321.229 211.947 322.036 208.124 320.665C204.806 319.475 203.036 319.333 203.036 320.257C203.036 320.605 203.698 321.191 204.506 321.559C205.315 321.928 206.574 323.428 207.305 324.894C208.394 327.075 208.51 327.833 207.942 329.08C207.063 331.011 203.701 332.632 200.576 332.632C197.808 332.632 197.121 333.309 198.077 335.097C198.668 336.2 198.271 337.975 197.129 339.336C197.037 339.447 196.068 339.074 194.976 338.509C192.369 337.16 191.446 338.02 192.763 340.569C193.299 341.606 194.318 342.639 195.028 342.865C196.247 343.252 196.26 343.338 195.269 344.434C194.691 345.072 194.392 346.042 194.602 346.59C194.828 347.18 194.324 348.453 193.367 349.709C191.811 351.75 191.789 351.891 192.787 353.414C193.357 354.285 194.246 355.16 194.763 355.359C196.627 356.074 196.936 358.52 195.515 361.308C194.091 364.102 193.872 366.902 194.975 368.231C195.977 369.439 192.605 371.793 191.089 370.944H191.089ZM145.468 102.665C147.122 99.206 150.2 96.6302 152.678 96.6302C154.462 96.6302 154.483 96.92 152.85 98.9979L151.566 100.632L152.883 101.7C153.945 102.56 154.493 102.634 155.703 102.083C156.53 101.706 157.377 100.859 157.585 100.2C157.87 99.3043 158.332 99.095 159.422 99.3688C160.431 99.6221 161.062 99.4053 161.477 98.663C162.735 96.4139 159.534 93.5377 157.178 94.7995C155.492 95.7024 153.289 93.9061 153.759 92.0116C153.934 91.3095 153.575 90.0874 152.954 89.2676C151.675 87.5777 149.728 87.3998 145.468 88.5832C143.936 89.0088 142.189 89.3379 141.586 89.3145C140.983 89.2912 140.651 89.534 140.849 89.854C141.046 90.1741 140.983 90.4422 140.707 90.4498C140.432 90.4573 139.513 90.9964 138.666 91.6478L137.126 92.8321L138.856 93.4902C140.208 94.0046 141.005 93.9312 142.507 93.154C144.273 92.2405 144.6 92.241 146.526 93.1604C147.687 93.7141 149.271 93.9985 150.073 93.7969C150.871 93.5966 151.694 93.7094 151.903 94.0475C152.116 94.393 151.244 94.8377 149.912 95.0631C146.289 95.6755 144.407 97.1851 141.779 101.586C139.584 105.261 139.458 105.705 140.333 106.676C141.192 107.63 141.429 107.645 142.606 106.821C143.329 106.315 144.617 104.444 145.468 102.665V102.665ZM156.715 106.488C158.918 105.363 159.13 105.08 158.354 104.303C157.577 103.526 157.086 103.577 154.56 104.695C151.594 106.008 150.652 107.78 152.921 107.78C153.616 107.78 155.323 107.198 156.715 106.488ZM167.69 101.807C168.98 100.904 169.027 100.726 168.118 100.217C166.78 99.4675 162.801 100.759 162.801 101.943C162.801 103.164 165.878 103.078 167.69 101.807ZM214.179 369.302C214.179 369.029 214.513 368.472 214.921 368.063C215.33 367.654 215.43 367.32 215.144 367.32C214.859 367.32 214.291 367.777 213.882 368.335C213.296 369.138 212.891 369.207 211.957 368.664C211.289 368.276 211.127 367.969 211.584 367.958C212.03 367.947 212.222 367.66 212.012 367.32C211.608 366.665 212.67 366.487 215.726 366.696C218.454 366.882 218.728 367.281 217.042 368.608C215.472 369.844 214.179 370.157 214.179 369.302V369.302ZM731.136 353.756C729.365 352.633 733.053 350.154 742.196 346.32C744.75 345.25 748.641 343.011 750.843 341.345C754.587 338.513 754.898 338.39 755.64 339.45C756.766 341.06 756.103 342.225 753.351 343.466C752.036 344.059 750.383 345.209 749.678 346.021C748.972 346.834 747.836 347.498 747.154 347.498C746.472 347.498 744.869 348.437 743.591 349.584C739.217 353.512 733.677 355.367 731.136 353.756ZM687.814 345.709C687.171 345.301 687.135 344.881 687.659 343.901C688.035 343.199 688.342 341.751 688.342 340.683C688.342 338.938 688.483 338.792 689.735 339.233C690.501 339.502 692.103 339.76 693.294 339.804C694.486 339.849 695.676 339.926 695.939 339.975C696.965 340.168 694.223 343.291 691.759 344.736C688.825 346.457 688.946 346.427 687.814 345.709V345.709ZM759.343 340.292C759.128 340.077 759.638 339.36 760.477 338.7C761.74 337.706 761.887 337.286 761.335 336.253C760.536 334.759 761.723 333.156 764.472 332.016C766.601 331.133 767.138 329.342 766.567 325.019C766.174 322.045 766.222 321.859 767.179 322.652C767.931 323.274 768.116 324.058 767.848 325.488C767.554 327.056 767.818 327.87 769.125 329.424C770.536 331.102 770.955 331.284 772.053 330.696C773.147 330.11 773.276 330.164 772.931 331.062C772.709 331.64 772.528 332.223 772.528 332.357C772.528 332.491 771.623 333.064 770.516 333.631C769.41 334.198 767.251 335.697 765.719 336.963C763.227 339.021 760.664 340.684 759.982 340.684C759.846 340.684 759.559 340.508 759.343 340.292V340.292ZM693.885 332.292C692.582 330.904 692.341 330.85 691.088 331.671C689.493 332.718 686.494 332.106 684.09 330.245C682.808 329.251 682.719 328.931 683.38 327.695C683.945 326.64 683.963 325.9 683.454 324.781C683.078 323.957 682.771 322.738 682.771 322.072C682.771 320.572 681.797 320.5 680.991 321.942C680.659 322.535 680.211 322.843 679.994 322.626C679.777 322.409 680.494 321.212 681.587 319.967C684.277 316.901 683.227 316.069 679.674 318.45C678.143 319.476 676.791 320.597 676.67 320.941C676.549 321.285 675.813 320.223 675.035 318.582C674.192 316.802 672.734 315.014 671.425 314.15C669.458 312.854 668.791 312.747 665.013 313.123C659.472 313.675 654.126 315.042 650.627 316.803C649.036 317.603 645.932 318.422 643.539 318.673C641.197 318.919 637.472 319.801 635.261 320.634C631.881 321.907 630.919 322.041 629.206 321.475C626.908 320.717 625.954 319.153 627.44 318.582C627.978 318.375 628.955 316.954 629.611 315.423C630.66 312.973 630.718 312.21 630.096 309.044C629.581 306.425 629.567 303.945 630.043 299.913C630.403 296.868 630.541 293.777 630.349 293.045C630.158 292.312 630.457 290.518 631.014 289.059C631.996 286.485 632.234 286.317 638.875 283.502C642.641 281.906 646.497 280.6 647.442 280.6C650.001 280.6 653.169 278.164 654.916 274.854C655.995 272.808 656.744 272.03 657.392 272.28C659.2 272.979 659.557 272.842 659.417 271.501C659.328 270.638 659.698 270.01 660.435 269.776C661.073 269.574 662.25 268.446 663.052 267.27C663.873 266.066 665.561 264.709 666.916 264.165C669.176 263.257 669.401 263.271 670.63 264.389C672.898 266.452 674.505 267.054 675.273 266.128C675.646 265.678 675.774 265.133 675.558 264.916C674.849 264.207 678.092 260.137 679.676 259.746C680.527 259.536 682.275 258.837 683.56 258.193C685.563 257.188 686.268 257.122 688.512 257.725C693.351 259.025 693.512 259.238 691.712 261.959C689.397 265.46 690.011 266.829 695.689 270.828C698.31 272.675 700.785 274.075 701.188 273.941C701.591 273.806 702.866 272.392 704.021 270.799C705.596 268.627 706.206 267.048 706.458 264.495C706.817 260.868 708.551 255.823 709.439 255.823C709.733 255.823 710.407 257.315 710.936 259.138C711.466 260.961 712.576 263.089 713.403 263.867C715.336 265.683 716.458 270.764 715.59 273.765C715.015 275.754 715.126 276.073 717.097 278.101C718.267 279.305 720.117 282.241 721.209 284.626C722.301 287.011 724.269 290.385 725.583 292.125L727.972 295.287L727.293 300.173C726.8 303.718 726.037 306.08 724.514 308.78C722.181 312.915 718.693 316.86 716.854 317.444C716.193 317.654 714.661 319.206 713.45 320.893C712.239 322.58 710.975 323.96 710.642 323.96C710.309 323.96 708.893 325.407 707.496 327.177C705.165 330.127 704.735 330.398 702.307 330.443C700.443 330.478 699.016 330.984 697.486 332.152L695.312 333.811L693.885 332.292H693.885ZM392.043 319.269C390.732 317.957 390.513 317.286 390.806 315.479C391.082 313.779 390.819 312.779 389.642 311.045C388.805 309.814 388.121 308.503 388.121 308.133C388.121 307.762 387.027 305.991 385.689 304.197C383.621 301.423 383.196 300.315 382.855 296.806C382.253 290.615 380.278 283.914 377.622 279.057C376.317 276.669 375.063 273.569 374.836 272.167C374.352 269.185 375.562 264.747 378.325 259.369L380.163 255.792L379.13 252.68C378.553 250.94 378.27 248.88 378.49 248.006C378.747 246.982 378.471 245.763 377.691 244.474C377.035 243.391 376.062 240.972 375.528 239.098C374.815 236.596 373.821 234.968 371.781 232.966C367.858 229.114 367.348 227.598 368.565 223.407C371.044 214.875 368.366 209.899 361.825 210.88C359.278 211.263 359.18 211.215 358.821 209.414C358.544 208.033 357.796 207.22 355.917 206.261C353.476 205.015 352.431 205.01 349.433 206.232C348.752 206.509 345.966 207.471 343.243 208.369C339.147 209.719 337.918 209.893 336.135 209.376C334.446 208.886 333.024 209.013 329.568 209.961C325.997 210.942 324.702 211.047 322.773 210.514C318.746 209.402 311.829 203.163 310.845 199.756C310.084 197.12 305.349 190.977 303.737 190.534C302.713 190.253 302.587 190.035 303.214 189.63C303.845 189.223 303.735 189.017 302.75 188.759C301.185 188.35 301.03 187.07 302.543 187.057C303.468 187.049 303.491 186.96 302.697 186.447C302.113 186.069 302.048 185.843 302.522 185.837C303.013 185.831 302.826 185.067 301.983 183.636C300.795 181.623 300.771 181.357 301.678 180.354C304.447 177.291 305.054 170.698 302.949 166.544C301.944 164.561 302.59 161.822 304.735 158.974C305.542 157.902 307.119 155.293 308.238 153.176C310.196 149.474 314.561 144.326 315.743 144.326C317.05 144.326 321.268 139.788 321.268 138.382C321.268 135.207 323.165 132.041 326.258 130.055C327.92 128.988 329.868 127.163 330.586 126C332.055 123.621 332.263 123.543 333.975 124.737C334.646 125.205 336.315 125.776 337.683 126.006C339.769 126.356 340.767 126.104 343.873 124.441C349.218 121.581 352.521 120.867 358.636 121.248C362.67 121.5 364.486 121.339 366.441 120.556C369.32 119.404 371.81 120.086 371.136 121.843C370.933 122.371 371.057 123.152 371.41 123.578C371.855 124.115 371.852 124.884 371.399 126.076C370.83 127.573 370.956 128.019 372.366 129.491C373.257 130.422 374.854 131.357 375.913 131.569C380.888 132.565 382.303 133.21 383.33 134.95C384.083 136.225 385.069 136.879 386.701 137.186C387.969 137.424 389.811 138.035 390.794 138.543C392.463 139.407 392.679 139.375 394.071 138.067C395.006 137.187 395.431 136.256 395.211 135.564C395.019 134.958 395.165 133.894 395.537 133.2C396.494 131.409 399.214 131.585 403.459 133.712C408.085 136.029 416.857 137.683 419.967 136.823C421.462 136.41 422.9 136.405 424.21 136.807C428.487 138.123 430.677 137.093 431.261 133.492C431.455 132.297 431.786 131.318 431.997 131.318C432.397 131.318 432.607 129.52 432.665 125.588C432.684 124.311 432.985 123.266 433.335 123.266C433.752 123.266 433.732 122.817 433.276 121.965C432.515 120.541 430.971 120.574 427.276 122.091C425.524 122.81 425.036 122.78 423.466 121.852C421.431 120.649 419.342 120.468 418.74 121.444C418.292 122.169 415.127 121.66 413.41 120.588C412.177 119.817 411.025 117.523 411.025 115.838C411.025 115.192 410.398 114.222 409.632 113.682C408.446 112.846 408.377 112.61 409.168 112.092C409.678 111.758 410.729 111.633 411.502 111.815C412.488 112.047 413.395 111.659 414.54 110.513C415.617 109.435 416.928 108.84 418.396 108.762C419.619 108.697 421.39 108.135 422.332 107.514C424.378 106.165 429.022 106.54 432.625 108.345C437.484 110.778 441.799 110.635 443.536 107.983C444.439 106.603 444.444 106.313 443.587 105.003C443.064 104.206 440.555 102.367 438.01 100.918L433.383 98.2841L434.25 96.6066C434.727 95.6839 434.961 94.7729 434.77 94.582C434.579 94.3912 434.652 93.868 434.932 93.4195C435.212 92.971 435.495 92.2441 435.562 91.8042C435.704 90.8659 434.706 91.1249 429.783 93.3034C426.925 94.5681 426.501 94.9556 427.135 95.7199C427.55 96.2206 428.482 96.6426 429.207 96.6576C430.222 96.6788 429.982 96.971 428.154 97.9361C425.934 99.1079 425.687 99.1231 424.244 98.177C423.01 97.3679 422.848 96.9915 423.433 96.2864C424.014 95.5865 423.927 95.3172 423.01 94.9725C422.376 94.7341 421.559 94.1406 421.193 93.6536C419.42 91.2888 413.795 97.5098 412.159 103.645C411.391 106.524 411.417 106.674 412.862 107.765L414.363 108.898L411.61 109.466C410.097 109.778 408.056 109.815 407.077 109.547C405.269 109.053 402.977 109.797 402.977 110.879C402.977 111.197 402.556 111.296 402.041 111.098C401.526 110.9 400.708 111.068 400.224 111.47C399.473 112.094 399.558 112.605 400.803 114.947C402.151 117.485 402.193 117.832 401.352 119.52C400.298 121.634 399.318 121.476 397.829 118.954C396.791 117.196 396.798 117.156 398.171 116.961C399.904 116.715 400.016 115.611 398.335 115.342C394.5 114.728 392.454 112.706 392.454 109.527C392.454 107.047 390.157 104.313 387.37 103.478C385.922 103.044 384.348 102.132 383.873 101.452C383.397 100.772 382.004 99.7963 380.777 99.2835C379.55 98.7706 378.177 97.8235 377.726 97.1787C377.078 96.2534 376.653 96.142 375.704 96.6499C375.043 97.0038 374.503 97.6919 374.503 98.1792C374.503 99.7875 382.393 107.063 386.249 109.011C390.339 111.077 390.977 111.815 388.136 111.19C385.603 110.633 384.913 111.191 385.78 113.093C386.388 114.43 386.289 114.837 385.064 116.014L383.642 117.381L383.966 115.536C384.48 112.607 380.62 108.399 377.42 108.399C376.247 108.399 371.739 104.024 370.559 101.739C369.297 99.2979 367.893 98.8262 365.904 100.176C362.908 102.208 360.662 102.896 358.312 102.498C355.19 101.971 353.226 103.06 353.723 105.043C353.983 106.079 353.839 106.541 353.255 106.541C352.791 106.541 351.602 107.238 350.612 108.089C349.623 108.94 348.601 109.637 348.34 109.637C347.575 109.639 345.414 113.552 345.412 114.942C345.409 116.272 342.988 118.892 340.653 120.093C339.909 120.475 338.178 120.788 336.806 120.788C334.918 120.788 334.144 121.099 333.626 122.068C332.948 123.336 332.927 123.333 331.341 121.745C329.853 120.256 328.996 119.883 325.992 119.418C324.414 119.174 324.148 115.599 325.328 110.507C325.832 108.329 326.08 105.89 325.878 105.085C325.292 102.747 327.128 101.368 330.2 101.84C337.292 102.93 341.441 102.99 342.414 102.017C343.75 100.68 344.353 96.27 343.537 93.7974C343.005 92.1847 342.274 91.5253 340.091 90.6912C336.881 89.4644 336.813 88.2777 339.952 88.2461C341.147 88.2341 342.872 87.7347 343.785 87.1364C344.698 86.5381 345.707 86.2109 346.028 86.4093C346.903 86.9505 350.216 85.0393 351.317 83.3587C351.848 82.5465 352.896 81.7258 353.644 81.535C354.392 81.3441 356.397 79.8897 358.099 78.303C360.512 76.0535 361.779 75.3482 363.848 75.101C366.412 74.7948 368.99 72.6851 367.779 71.8839C367.027 71.3859 366.399 68.3865 366.818 67.2939C367.016 66.7762 367.893 65.8846 368.765 65.3125L370.352 64.2723L369.944 66.821C369.591 69.0332 369.681 69.3457 370.627 69.1875C371.227 69.0872 372.348 68.6584 373.119 68.2345C374.293 67.589 374.581 67.6204 374.891 68.4275C375.421 69.8108 373.946 71.4374 372.928 70.5919C372.366 70.1249 372.009 70.1418 371.695 70.6504C371.371 71.175 371.117 71.1465 370.745 70.5435C370.466 70.0912 370.095 69.8632 369.921 70.037C369.748 70.2108 370.242 71.1524 371.021 72.1294C372.333 73.7762 372.583 73.8544 374.454 73.202C376.056 72.6432 376.825 72.6813 378.188 73.387C379.728 74.1837 380.248 74.1458 383.207 73.0206C385.8 72.0349 386.821 71.9085 387.969 72.4316C389.025 72.9129 389.807 72.903 390.787 72.3959C393.572 70.9562 394.343 69.8706 393.997 67.878C393.485 64.9244 394.423 63.957 396.895 64.8905C398.577 65.5257 399.068 65.5005 399.828 64.7399C400.633 63.9346 400.564 63.6371 399.245 62.2322C397.976 60.8806 397.887 60.5446 398.661 60.0224C399.162 59.6836 401.043 59.5622 402.839 59.7526C406.127 60.1011 410.224 58.8159 409.51 57.66C408.885 56.6478 405.111 56.3553 401.914 57.0713C399.079 57.7062 398.335 57.6549 396.162 56.6743C392.786 55.1513 392.389 53.3694 394.704 50.1407C397.684 45.985 398.229 44.6606 397.38 43.6372C396.123 42.1218 394.888 42.6158 392.017 45.7831C390.5 47.4567 388.432 49.1684 387.422 49.5869C386.413 50.0054 385.164 51.166 384.647 52.166C383.805 53.7946 383.807 54.1359 384.66 55.4386C385.184 56.2385 386.177 57.0723 386.867 57.2915C388.765 57.8945 388.39 59.0265 385.674 60.8861C384.838 61.4581 383.724 63.0762 383.198 64.4819C382.538 66.2434 381.535 67.4454 379.971 68.3492C377.765 69.6233 377.665 69.6283 376.446 68.5247C375.756 67.8999 375.025 66.6257 374.82 65.6931C374.615 64.7605 373.685 63.0839 372.754 61.9673L371.06 59.9371L368.913 61.2472C367.732 61.9677 366.208 62.552 365.527 62.5457C363.563 62.5276 361.289 60.4043 361.137 58.4463C361.061 57.4733 360.808 56.2 360.575 55.6168C360.02 54.2294 362.792 51.6274 365.673 50.8315C368.564 50.0327 374.428 45.9205 375.427 43.991C375.871 43.1327 377.377 41.4056 378.774 40.1529C380.17 38.9003 381.312 37.5993 381.312 37.2619C381.312 36.9244 382.635 36.1766 384.252 35.5999C385.869 35.0232 388.585 33.9769 390.288 33.2748C392.378 32.4128 394.991 31.957 398.335 31.8714C404.178 31.7218 407.999 32.4968 411.151 34.4708C412.733 35.4613 413.982 35.7992 415.176 35.5601C417.314 35.1324 428.706 38.666 429.181 39.9038C429.658 41.148 426.391 42.3224 423.579 41.9172C422.292 41.7317 419.629 41.2354 417.662 40.8144C415.014 40.2478 413.905 40.2299 413.389 40.7455C412.874 41.2612 413.131 41.6418 414.381 42.2117C415.31 42.635 416.472 43.7606 416.964 44.713C418.218 47.1379 422.231 49.1148 424.302 48.3269C426.292 47.57 426.278 47.3312 424.179 46.1916C422.237 45.1375 423.133 44.9097 425.572 45.8374C427.519 46.5781 429.724 45.6566 429.211 44.3171C428.97 43.6897 429.647 43.2367 431.555 42.7474C435.639 41.7002 435.938 41.5505 435.599 40.7218C434.318 37.5872 434.3 37.6772 436.164 37.8902C437.159 38.0039 437.886 38.4296 437.803 38.8502C437.721 39.2659 438.24 39.9195 438.955 40.3026C440.03 40.878 440.877 40.673 443.832 39.1233C448.164 36.8508 451.537 36.1099 452.795 37.1544C453.496 37.7369 454.659 37.741 458.025 37.1728C460.406 36.771 462.624 36.6095 462.954 36.8139C463.285 37.0183 463.738 36.89 463.961 36.5289C464.448 35.7391 463.099 33.9469 462.361 34.4037C461.469 34.955 458.542 33.9673 459.179 33.33C459.82 32.6883 477.047 36.7052 478.078 37.7368C478.773 38.4323 480.973 37.5046 480.973 36.5161C480.973 36.1829 479.744 35.3131 478.243 34.5831C473.587 32.3196 473.288 28.6946 477.667 27.5949C480.208 26.9567 481.307 27.6929 484.821 32.3883C489.384 38.4843 489.268 38.1742 487.777 40.2692C486.673 41.8206 486.607 42.1837 487.373 42.4778C488.824 43.0351 491.93 41.0851 492.367 39.3422C492.879 37.3001 491.923 35.5597 489.639 34.3779C487.844 33.4488 486.544 31.7464 486.544 30.3234C486.544 29.8384 487.218 29.7174 488.556 29.962C490.563 30.3288 492.222 29.6006 496.767 26.3598C497.806 25.6186 499.563 25.1302 501.334 25.09C504.927 25.0085 506.09 24.4049 505.056 23.1581C504.651 22.6692 504.448 22.1402 504.605 21.9826C505.396 21.1915 515.587 19.766 517.934 20.1182C520.192 20.4571 520.891 20.2737 522.749 18.8556C523.945 17.9432 524.923 16.951 524.923 16.6507C524.923 15.8936 519.514 15.9612 519.042 16.7243C518.394 17.7742 517.553 17.4088 517.79 16.1799C517.99 15.1422 517.466 14.9734 512.957 14.6221C500.645 13.6628 499.644 13.4377 501.121 11.9597C502.42 10.6603 505.605 10.6855 508.271 12.0163C509.363 12.5616 511.173 13.0077 512.292 13.0077C513.411 13.0077 514.499 13.2864 514.709 13.6271C514.92 13.9678 516.004 14.2465 517.119 14.2465C520.206 14.2465 526.175 15.581 525.8 16.1874C525.618 16.4827 526.195 16.7243 527.084 16.7243C527.972 16.7243 529.59 17.2043 530.68 17.791C532.145 18.58 534.192 18.8638 538.541 18.8813C543.217 18.9 544.771 19.1403 546.124 20.0538C547.06 20.6857 547.822 21.3797 547.817 21.596C547.813 21.8124 546.384 22.7758 544.643 23.7371C540.438 26.0585 541.327 27.0702 546.413 25.7514C549.707 24.8972 550.464 24.8917 553.192 25.7023C555.43 26.3673 556.827 26.4526 558.345 26.0171C559.86 25.5823 561.415 25.6756 564.054 26.3598C566.807 27.0737 568.234 27.1464 569.979 26.6614C573.961 25.5547 578.86 25.8673 581.702 27.4094C583.115 28.1759 585.72 29.5943 587.492 30.5612C590.632 32.2753 590.769 32.2942 592.947 31.3171C594.77 30.4993 595.787 30.4309 598.476 30.9452C601.148 31.4565 602.121 31.3942 603.626 30.6153C605.099 29.8533 605.336 29.4788 604.774 28.8011C603.687 27.4907 607.543 27.0035 612.282 27.8527C614.452 28.2417 617.202 28.6299 618.394 28.7155C619.585 28.8011 621.913 29.4806 623.567 30.2255C626.089 31.3615 627.993 31.6189 635.373 31.8217C642.375 32.0142 644.604 32.2946 646.293 33.1955C648.008 34.1099 649.962 34.3425 656.463 34.4059C662.444 34.4643 665.123 34.7481 666.897 35.5111C669.761 36.7427 670.907 36.291 669.348 34.5448C668.227 33.2888 668.233 33.2871 672.557 33.7169C679.803 34.4372 688.495 36.0238 691.437 37.1633C692.969 37.7566 695.889 38.4461 697.926 38.6954C699.963 38.9448 702.935 39.8108 704.531 40.6199C706.953 41.8481 707.74 41.9837 709.295 41.4412C711.422 40.6993 712.801 41.2336 716.049 44.0565L718.067 45.8106L716.546 46.1925C715.02 46.5759 710.967 45.5718 709.57 44.4644C709.16 44.1388 708.584 44.0207 708.291 44.202C707.998 44.3833 706.55 44.1152 705.074 43.6062C701.616 42.414 700.08 42.8618 701.655 44.6031C702.731 45.7924 702.707 45.8174 700.656 45.6742C696.818 45.4063 697.873 46.5406 703.508 48.74C706.572 49.936 709.21 51.0416 709.371 51.197C709.951 51.7597 708.036 52.4574 706.642 52.1907C705.112 51.898 701.341 53.5415 701.341 54.5011C701.341 54.8197 700.746 55.6359 700.017 56.3148C698.801 57.4489 698.549 57.4748 696.922 56.6328C695.4 55.8448 694.913 55.8367 693.449 56.5745C692.513 57.0464 690.913 57.6335 689.893 57.879C688.874 58.1246 687.693 58.6135 687.269 58.9655C686.023 60.0001 688.22 63.0115 691.314 64.5101C692.998 65.3263 694.218 66.4199 694.581 67.4392C694.899 68.3339 695.574 69.8031 696.081 70.7043C696.906 72.1729 696.899 72.3821 696.012 72.7226C695.362 72.9723 695.171 73.4725 695.454 74.1813C695.691 74.7746 695.959 75.957 696.049 76.8087C696.139 77.6604 696.412 78.8199 696.656 79.3853C696.972 80.1214 696.711 80.5362 695.735 80.8461C694.649 81.1911 693.917 80.7755 692.131 78.7997C690.898 77.4361 688.842 75.5588 687.562 74.6278C686.282 73.6969 683.988 71.2761 682.464 69.2482C679.777 65.6712 679.722 65.5081 680.614 63.7826C681.119 62.8043 681.543 61.3629 681.555 60.5795C681.568 59.796 681.96 58.4627 682.428 57.6166C683.322 56.0005 682.977 54.7102 681.066 52.5161C679.811 51.0755 677.578 52.1554 678.141 53.9307C678.66 55.5662 677.069 56.0961 675.238 54.8974C674.445 54.3777 672.618 53.7644 671.179 53.5345C668.707 53.1399 668.524 53.2158 667.884 54.8969C667.511 55.8761 667.354 57.4241 667.536 58.3368C667.819 59.759 667.622 60.05 666.16 60.3713C665.165 60.59 663.462 60.3313 662.073 59.7507C660.548 59.1131 659.111 58.9203 658.077 59.2145C657.189 59.4671 654.187 59.6964 651.406 59.7241C647 59.7679 646.151 59.9604 644.812 61.2191C643.967 62.0137 642.952 63.9648 642.556 65.5551C642.16 67.1453 641.434 69.0669 640.943 69.8252C640.094 71.1359 640.176 71.2684 642.602 72.5068C645.235 73.851 648.106 74.2051 650.282 73.4541C651.961 72.8749 657.082 76.8701 658.681 80.0063C659.336 81.291 660.418 82.6349 661.087 82.9928C663.615 84.3468 664.129 93.2311 662.014 99.0394C660.55 103.061 658.912 104.376 656.506 103.46C655.587 103.111 654.742 102.825 654.628 102.825C654.515 102.825 653.826 103.968 653.098 105.366C652.142 107.201 651.956 108.126 652.427 108.694C653.329 109.782 652.661 111.197 650.858 112.019C650.025 112.398 649.344 112.979 649.344 113.309C649.344 113.638 651.281 115.242 653.648 116.872C656.66 118.946 658.269 120.539 659.007 122.177C659.587 123.464 659.948 124.619 659.81 124.744C659.671 124.869 658.406 125.553 656.998 126.263L654.438 127.555L652.898 124.016C651.174 120.056 649.695 118.464 647.09 117.762C645.778 117.409 645.321 116.908 645.321 115.824C645.321 114.829 644.678 113.984 643.314 113.185C641.327 112.02 641.288 112.021 639.173 113.329C637.056 114.638 637.032 114.639 636.382 113.423C636.021 112.749 635.726 111.771 635.726 111.249C635.726 110.728 635.206 110.023 634.57 109.682C633.624 109.176 633.027 109.482 631.289 111.364C630.12 112.629 628.623 113.972 627.961 114.349C626.935 114.933 626.881 115.18 627.588 116.033C628.044 116.582 629.618 117.704 631.086 118.525C633.421 119.83 633.868 119.905 634.655 119.117C635.403 118.368 636.012 118.341 638.271 118.954L640.988 119.692L639.474 120.705C636.666 122.583 635.781 123.568 635.38 125.263C635.051 126.654 635.247 127.073 636.495 127.642C637.328 128.021 638.594 129.536 639.309 131.008C640.023 132.48 641.451 134.183 642.481 134.791C644.746 136.131 645.403 137.553 644.095 138.286C642.875 138.969 643.458 139.99 645.067 139.99C646.995 139.99 647.006 141.141 645.143 147.783C642.886 155.827 640.849 158.511 635.519 160.462C633.42 161.23 630.867 161.905 629.846 161.962C627.471 162.093 625.63 163.099 624.024 165.143L622.749 166.764L622.154 165.199C621.379 163.158 619.6 162.644 617.046 163.725C614.707 164.716 613.164 166.296 612.542 168.338C611.985 170.166 613.956 173.381 617.221 175.968C619.9 178.092 622.907 183.422 623.613 187.3C624.227 190.673 623.139 192.887 620.22 194.204C618.89 194.804 617.646 195.788 617.455 196.39C616.996 197.838 614.247 199.639 613.744 198.823C613.534 198.483 613.525 197.689 613.725 197.059C613.925 196.429 613.915 195.461 613.703 194.908C613.398 194.113 613.06 194.041 612.083 194.565C611.065 195.11 610.672 194.972 609.85 193.779C607.83 190.848 601.975 186.137 600.351 186.137C599.78 186.137 599.559 186.826 599.657 188.305C599.736 189.498 599.493 191.823 599.117 193.472C598.506 196.158 598.569 196.651 599.721 198.21C600.428 199.167 601.182 200.651 601.397 201.507C601.615 202.377 603.406 204.363 605.453 206.006C608.865 208.745 609.225 209.285 610.661 213.835C611.509 216.522 612.204 218.986 612.204 219.309C612.204 220.359 610.911 219.934 608.212 217.994C605.422 215.989 603.64 212.818 602.154 207.212C601.509 204.777 600.802 203.734 598.794 202.256C596.333 200.444 596.258 200.286 596.457 197.287C596.569 195.584 596.848 193.169 597.077 191.922C597.398 190.165 597.132 188.907 595.899 186.347C595.023 184.528 593.988 181.735 593.598 180.14C592.726 176.577 591.496 175.98 589.32 178.066C588.421 178.928 587.511 179.633 587.299 179.633C586.314 179.633 584.96 177.535 585.285 176.511C585.874 174.652 582.248 168.17 580.126 167.291C578.964 166.81 577.903 165.642 577.192 164.066C575.958 161.327 574.573 160.278 573.19 161.036C572.688 161.311 570.679 161.864 568.725 162.265C565.143 163 563.858 164.085 564.349 165.961C564.529 166.652 563.903 167.32 562.4 168.037C561.181 168.618 559.869 169.787 559.483 170.635C559.097 171.483 558.247 172.346 557.594 172.553C556.941 172.761 555.934 173.709 555.356 174.66C554.778 175.611 553.056 177.35 551.53 178.524C549.441 180.13 548.789 181.029 548.893 182.159C549.5 188.764 548.568 194.291 546.296 197.573C544.079 200.774 543.923 200.863 542.047 200.008C541.015 199.537 540.379 198.618 540.116 197.214C539.9 196.064 538.653 192.822 537.345 190.011C529.43 172.999 528.26 169.753 528.934 166.681C529.39 164.605 528.297 161.473 527.24 161.828C526.817 161.97 526.463 162.481 526.454 162.962C526.401 165.79 523.227 166.224 520.748 163.743L519.105 162.099L520.518 161.575C522.108 160.987 521.963 159.399 520.345 159.69C519.77 159.794 518.454 159.166 517.421 158.296C516.388 157.426 515.304 156.715 515.013 156.715C514.722 156.715 514.305 156.154 514.088 155.469C513.518 153.67 510.234 152.105 508.588 152.848C507.107 153.516 493.671 153.377 491.422 152.67C490.612 152.415 489.113 151.249 488.092 150.08C486.246 147.966 486.218 147.958 483.449 148.704C480.826 149.412 480.445 149.345 476.911 147.56C473.858 146.018 472.943 145.186 472.001 143.095C470.798 140.426 468.127 138.494 466.503 139.117C465.992 139.314 465.394 140.289 465.176 141.285C464.862 142.716 465.182 143.646 466.7 145.711C467.756 147.149 468.908 149.391 469.258 150.694C470.011 153.491 471.498 154.324 472.73 152.637C473.474 151.619 473.675 151.584 474.178 152.382C474.5 152.891 474.673 153.587 474.564 153.927C474.219 154.998 477.792 156.76 479.458 156.341C480.3 156.13 482.1 154.694 483.457 153.151C485.596 150.72 486.343 150.556 485.977 152.598C485.731 153.972 486.811 155.582 488.6 156.507C491.362 157.936 495.21 161.12 495.21 161.976C495.21 162.37 494.487 163.369 493.603 164.195C492.718 165.021 491.446 166.768 490.774 168.078C489.143 171.261 484.416 175.917 482.816 175.917C480.966 175.917 478.214 177.48 477.118 179.153C476.599 179.946 475.234 181.064 474.086 181.638C468.202 184.577 461.118 187.557 459.125 187.931C456.993 188.331 456.821 188.234 455.692 186.006C455.038 184.716 454.296 182.127 454.043 180.253C453.714 177.816 453.076 176.267 451.803 174.811C450.824 173.692 450.022 172.508 450.022 172.18C450.022 171.851 448.905 170.431 447.54 169.023C445.84 167.27 444.741 165.367 444.052 162.983C443.499 161.068 442.374 158.666 441.551 157.644C435.87 150.584 434.188 148.095 433.341 145.496C432.219 142.05 431.27 141.494 430.832 144.025L430.521 145.821L428.427 143.175C425.2 139.098 424.793 140.952 427.822 145.929C429.256 148.284 431.541 152.441 432.9 155.166C434.26 157.892 436.022 160.984 436.817 162.038C437.635 163.124 438.261 164.82 438.261 165.95C438.261 168.285 438.957 169.741 441.691 173.13C442.79 174.492 443.876 176.482 444.104 177.551C444.397 178.922 445.592 180.355 448.161 182.417C452.064 185.55 454.594 188.821 455.222 191.546C455.458 192.57 456.351 193.621 457.484 194.207C459.21 195.101 459.818 195.076 465.273 193.893C468.528 193.188 471.975 192.204 472.934 191.708L474.678 190.806L475.092 193.258C475.468 195.486 475.063 196.559 470.657 205.016C465.918 214.11 465.697 214.41 460.986 218.132C458.334 220.227 455.558 222.792 454.819 223.832C454.079 224.872 451.711 227.68 449.558 230.073C443.273 237.055 442.419 243.196 446.587 251.427C447.646 253.517 448.06 255.1 447.809 256.1C447.6 256.933 447.734 259.034 448.106 260.771C448.692 263.505 448.626 264.236 447.611 266.225C446.148 269.094 444.983 270.126 440.892 272.178C439.105 273.074 437.642 274.072 437.642 274.396C437.642 274.719 436.389 276.396 434.857 278.122C433.325 279.849 432.071 281.541 432.071 281.884C432.071 282.227 432.645 283.634 433.347 285.011C435.452 289.138 434.038 292.129 428.993 294.22C426.867 295.102 426.169 296.901 426.695 300.145C426.97 301.844 426.795 302.41 425.833 302.925C425.168 303.281 423.967 304.605 423.164 305.868C420.626 309.856 413.332 316.912 410.018 318.585C407.253 319.98 406.546 320.103 404.514 319.542C402.723 319.047 401.278 319.126 398.275 319.88C393.411 321.103 393.927 321.154 392.043 319.269L392.043 319.269ZM473.576 121.701C475.174 120.874 475.402 120.419 475.402 118.06C475.402 116.369 475.041 115.065 474.433 114.56C473.899 114.117 473.036 112.927 472.513 111.916C471.648 110.243 471.652 110.111 472.554 110.458C473.744 110.915 475.402 110.365 475.402 109.513C475.402 109.176 474.826 108.091 474.122 107.102C473.062 105.612 472.637 105.413 471.646 105.944C470.845 106.373 470.45 106.377 470.45 105.956C470.45 105.61 469.345 104.763 467.994 104.074C465.006 102.548 463.943 100.858 464.875 99.1152C465.58 97.7963 468.1 96.872 469.177 97.5376C470.628 98.435 471.055 97.1121 469.858 95.4297C466.955 91.3497 462.912 91.6183 457.899 96.2242C454.664 99.1964 454.383 99.9863 456.212 100.966C456.893 101.331 457.451 102.044 457.451 102.55C457.451 103.057 458.552 104.667 459.897 106.128C462.997 109.493 463.565 111.03 463.182 115.012L462.873 118.218L467.126 120.402C469.465 121.603 471.462 122.599 471.564 122.616C471.666 122.632 472.571 122.221 473.576 121.701H473.576ZM456.522 294.726C454.774 293.734 454.526 293.211 454.069 289.554C453.705 286.633 453.857 285.998 455.603 283.157C457.379 280.27 457.506 279.714 457.115 276.578C456.55 272.051 457.512 269.671 460.142 269.094C462.619 268.55 467.98 263.814 469.265 261.034L470.246 258.91L470.929 260.408C472.645 264.179 472.471 265.835 469.484 274.104C467.886 278.529 466.172 283.821 465.674 285.865C464.083 292.407 463.178 293.984 460.571 294.766C457.795 295.598 458.064 295.601 456.522 294.726V294.726ZM761.448 283.957C759.473 281.794 758.291 279.939 758.291 279.001C758.291 276.923 758.624 277.105 760.41 280.155C761.265 281.613 762.808 283.616 763.841 284.606C764.874 285.597 765.719 286.633 765.719 286.91C765.719 288.102 764.401 287.19 761.448 283.957V283.957ZM485.306 283.078C485.306 282.737 485.585 282.458 485.925 282.458C486.266 282.458 486.544 282.737 486.544 283.078C486.544 283.418 486.266 283.697 485.925 283.697C485.585 283.697 485.306 283.418 485.306 283.078ZM811.283 281.948C811.065 281.594 811.188 281.118 811.557 280.89C812.477 280.322 812.802 280.774 812.188 281.768C811.86 282.301 811.541 282.364 811.283 281.948V281.948ZM489.639 280.946C489.639 280.796 489.918 280.501 490.258 280.29C490.599 280.08 490.877 280.203 490.877 280.563C490.877 280.924 490.599 281.219 490.258 281.219C489.918 281.219 489.639 281.096 489.639 280.946ZM795.186 274.66C794.583 273.087 795.348 272.536 797.055 273.314C798.527 273.986 798.56 274.088 797.533 274.839C796.098 275.89 795.645 275.855 795.186 274.66ZM799.108 271.905C797.898 271.157 798.736 270.559 800.661 270.797C802.169 270.984 802.203 271.052 801.126 271.716C800.438 272.141 799.614 272.218 799.108 271.905V271.905ZM770.207 269.632C768.935 266.893 769.381 265.84 770.695 268.477C772.064 271.221 772.087 271.31 771.445 271.304C771.189 271.301 770.632 270.549 770.207 269.632V269.632ZM772.577 269.192C772.55 268.539 772.696 268.173 772.902 268.379C773.108 268.585 773.13 269.119 772.951 269.566C772.753 270.061 772.606 269.914 772.577 269.192H772.577ZM822.971 263.245C822.404 262.328 822.941 261.859 824.263 262.117C825.23 262.306 825.241 262.407 824.367 263.131C823.671 263.709 823.277 263.741 822.971 263.245V263.245ZM457.141 260.159C456.931 259.818 457.053 259.539 457.414 259.539C457.775 259.539 458.07 259.818 458.07 260.159C458.07 260.5 457.947 260.778 457.797 260.778C457.646 260.778 457.351 260.5 457.141 260.159ZM728.888 254.339C724.97 253.103 723.194 251.955 721.652 249.662C719.891 247.043 716.668 245.06 715.022 245.583C714.356 245.794 713.236 246.943 712.533 248.136C711.335 250.167 711.105 250.279 708.928 249.892C707.649 249.665 705.863 248.788 704.959 247.945C703.809 246.873 702.928 246.534 702.031 246.819C701.325 247.043 700.302 246.977 699.758 246.672C698.907 246.196 698.991 245.972 700.352 245.08C701.928 244.046 701.93 244.033 700.873 241.813C700.023 240.03 698.851 239.102 695.019 237.173C692.383 235.847 689.404 234.762 688.398 234.762C686.096 234.762 685.145 232.639 686.879 231.37C687.911 230.616 687.76 230.428 685.069 229.12C682.211 227.731 682.171 227.672 683.535 226.913C684.307 226.485 685.549 226.124 686.295 226.112C687.746 226.089 689.58 228.183 689.58 229.861C689.58 230.421 690.182 231.645 690.918 232.58C692.236 234.258 692.27 234.264 693.239 233.053C693.78 232.378 695.507 231.088 697.076 230.188L699.93 228.552L703.886 230.338C706.061 231.32 709.149 232.595 710.748 233.172C712.347 233.748 715.546 235.462 717.856 236.981C722.268 239.88 724.184 242.325 723.085 243.65C722.189 244.73 725.709 249.652 729.352 252.413C733.356 255.447 733.289 255.728 728.888 254.339V254.339ZM755.827 254.289C755.339 253.701 755.292 253.345 755.702 253.345C756.45 253.345 757.323 254.52 756.893 254.95C756.737 255.106 756.258 254.809 755.827 254.289V254.289ZM651.82 251.768C650.923 251.271 650.663 250.906 651.201 250.899C652.307 250.884 654.075 251.915 653.659 252.332C653.498 252.493 652.67 252.239 651.82 251.768ZM662.286 250.949C664.041 248.482 666.788 247.427 669.328 248.243C671.179 248.838 671.208 248.887 669.738 248.946C668.869 248.981 666.839 249.845 665.229 250.868C661.554 253.2 660.667 253.224 662.286 250.949V250.949ZM752.101 251.797C751.264 250.788 751.464 250.662 752.978 251.243C753.517 251.45 753.958 251.868 753.958 252.173C753.958 253.029 752.955 252.826 752.101 251.797V251.797ZM755 251.25C754.767 250.643 754.594 249.682 754.616 249.113C754.642 248.429 754.857 248.585 755.252 249.576C755.581 250.398 755.754 251.36 755.636 251.712C755.519 252.065 755.232 251.857 755 251.25ZM802.86 251.833C802.86 251.683 803.138 251.388 803.479 251.177C803.819 250.967 804.098 251.09 804.098 251.45C804.098 251.811 803.819 252.106 803.479 252.106C803.138 252.106 802.86 251.983 802.86 251.833ZM644.543 249.232C644.115 249.051 643.923 248.648 644.116 248.337C644.588 247.571 648.556 247.614 649.035 248.39C649.245 248.73 649.053 249.013 648.607 249.018C648.162 249.022 647.24 249.146 646.559 249.293C645.878 249.44 644.971 249.412 644.543 249.232V249.232ZM653.733 248.767C652.608 247.41 653.905 246.998 656.821 247.783C659.759 248.575 659.749 248.699 656.704 249.249C655.122 249.534 654.253 249.393 653.733 248.767V248.767ZM746.673 248.39C746.245 247.704 746.169 247.151 746.502 247.151C746.834 247.151 747.403 247.708 747.767 248.39C748.132 249.071 748.209 249.629 747.938 249.629C747.668 249.629 747.098 249.071 746.673 248.39V248.39ZM750.55 247.767C748.895 245.937 749.781 245.649 751.484 247.463C752.282 248.313 752.651 249.009 752.304 249.009C751.957 249.009 751.168 248.45 750.55 247.767V247.767ZM634.488 247.659C632.275 247.352 629.155 246.671 627.554 246.145C625.954 245.62 624.068 245.373 623.364 245.597C621.947 246.047 615.918 244.273 615.918 243.406C615.918 241.426 621.467 241.276 624.416 243.176C625.517 243.885 626.385 243.933 628.712 243.411C631.291 242.833 631.828 242.904 633.343 244.025C634.286 244.722 635.337 245.293 635.68 245.293C636.904 245.293 640.619 247.365 640.306 247.872C640.13 248.157 639.654 248.351 639.249 248.304C638.843 248.256 636.701 247.966 634.488 247.659V247.659ZM745.601 244.673C744.985 243.992 744.759 243.434 745.099 243.434C745.44 243.434 746.223 243.992 746.839 244.673C747.455 245.355 747.681 245.912 747.34 245.912C747 245.912 746.217 245.355 745.601 244.673ZM741.697 243.889C741.346 243.465 740.879 242.283 740.659 241.263C740.307 239.62 740.346 239.549 741.006 240.647C741.415 241.328 742.148 242.346 742.633 242.908C743.147 243.504 743.269 244.083 742.926 244.295C742.602 244.496 742.049 244.313 741.697 243.889ZM728.588 241.919L727.05 241.067L729.434 240.62C730.745 240.374 732.76 239.344 733.912 238.332C735.169 237.228 736.002 236.827 735.997 237.331C735.983 238.59 735.221 239.561 732.907 241.269C730.49 243.053 730.604 243.036 728.588 241.919V241.919ZM612.47 239.507C610.196 238.211 606.094 233.195 604.759 230.077C604.038 228.396 602.388 225.626 601.09 223.922C599.793 222.219 598.304 219.989 597.781 218.967C597.258 217.945 595.67 215.994 594.252 214.631C591.263 211.758 589.424 208.739 590.677 208.76C592.301 208.788 596.483 211.114 598.276 212.988C603.223 218.156 604.237 219.076 606.572 220.516C608.826 221.905 609.893 223.351 610 225.161C610.021 225.502 610.662 226.478 611.425 227.329C612.188 228.181 613.628 229.783 614.625 230.889C615.622 231.995 616.618 233.721 616.838 234.724C617.559 238.008 614.916 240.902 612.47 239.507V239.507ZM487.782 239.098C487.782 238.758 488.061 238.479 488.401 238.479C488.742 238.479 489.02 238.758 489.02 239.098C489.02 239.439 488.742 239.718 488.401 239.718C488.061 239.718 487.782 239.439 487.782 239.098ZM651.508 239.093C651.295 238.749 651.294 237.926 651.501 237.263C651.712 236.599 651.456 235.405 650.932 234.605C650.07 233.288 650.078 233.012 651.019 231.668C651.591 230.851 652.265 228.66 652.517 226.797C652.829 224.499 653.445 222.942 654.432 221.954C655.783 220.602 656.123 220.542 659.16 221.119C661.767 221.613 662.793 221.552 664.213 220.818C666.59 219.588 666.763 219.643 665.974 221.376C664.97 223.58 662.966 224.284 660.851 223.176C657.077 221.197 652.068 224.138 654.711 226.782C655.682 227.754 656.219 227.843 658.018 227.326C661.102 226.441 662.318 226.604 660.403 227.645C658.235 228.824 657.824 230.131 658.941 232.293C659.449 233.277 659.865 234.802 659.865 235.683C659.865 237.092 659.717 237.204 658.626 236.62C657.945 236.255 656.962 234.937 656.441 233.692C655.503 231.444 655.486 231.436 654.285 232.638C653.232 233.692 653.161 234.16 653.737 236.25C654.258 238.138 654.223 238.762 653.573 239.175C652.48 239.868 651.972 239.848 651.505 239.093H651.508ZM736.436 235.789C735.853 234.898 734.517 233.724 733.467 233.181C732.417 232.638 731.697 232.054 731.868 231.884C732.83 230.92 738.202 235.295 737.744 236.669C737.603 237.092 737.042 236.714 736.436 235.789ZM639.229 233.727C638.295 233.238 637.037 232.994 636.433 233.186C634.893 233.675 628.776 232.429 628.17 231.503C627.688 230.766 626.27 226.228 625.511 222.993C625.302 222.104 625.511 220.95 625.998 220.282C626.707 219.314 627.073 219.24 628.195 219.841C629.379 220.475 629.63 220.367 630.28 218.941C630.686 218.049 632.037 216.799 633.283 216.163C634.603 215.489 635.871 214.228 636.321 213.142C636.839 211.89 637.785 211.049 639.202 210.581C640.362 210.198 642.037 208.932 642.925 207.767C643.813 206.602 644.869 205.649 645.273 205.649C645.676 205.649 646.898 206.569 647.987 207.694L649.968 209.739L648.38 211.875C646.576 214.302 646.671 216.39 648.715 219.261L649.952 221L648.41 222.011C647.562 222.567 646.87 223.364 646.871 223.782C646.877 225.201 642.91 233.378 641.916 234C641.223 234.432 640.418 234.351 639.229 233.727V233.727ZM675.188 233.716C673.907 233.381 673.729 232.285 674.956 232.285C675.424 232.285 676.734 232.47 677.867 232.697C679.612 233.046 679.742 233.182 678.719 233.583C677.374 234.109 676.777 234.131 675.188 233.716V233.716ZM773.766 225.817C773.766 225.667 774.045 225.372 774.385 225.161C774.725 224.951 775.004 225.074 775.004 225.434C775.004 225.795 774.725 226.09 774.385 226.09C774.045 226.09 773.766 225.968 773.766 225.817ZM673.02 224.137C672.525 223.642 672.496 223.068 672.924 222.266C673.265 221.63 673.378 220.842 673.176 220.516C672.618 219.612 674.017 217.418 675.151 217.418C676.061 217.418 676.058 217.525 675.111 218.571C674.293 219.475 674.202 220.073 674.688 221.353C675.671 223.939 674.602 225.721 673.019 224.137H673.02ZM362.123 222.101C362.123 221.95 362.401 221.655 362.742 221.445C363.082 221.234 363.361 221.357 363.361 221.718C363.361 222.079 363.082 222.374 362.742 222.374C362.401 222.374 362.123 222.251 362.123 222.101ZM791.408 220.516C791.197 220.175 791.32 219.896 791.681 219.896C792.041 219.896 792.336 220.175 792.336 220.516C792.336 220.856 792.214 221.135 792.063 221.135C791.913 221.135 791.618 220.856 791.408 220.516ZM365.837 214.668C365.837 214.517 366.115 214.222 366.456 214.012C366.796 213.801 367.075 213.924 367.075 214.285C367.075 214.646 366.796 214.941 366.456 214.941C366.115 214.941 365.837 214.818 365.837 214.668ZM663.588 205.354C662.407 202.598 662.25 202.474 660.433 202.874C658.622 203.272 658.559 203.223 659.237 201.954C659.799 200.903 660.32 200.695 661.652 200.988C662.935 201.27 663.756 200.984 665.013 199.818C665.928 198.97 666.683 197.774 666.69 197.162C666.71 195.598 669.008 200.842 669.533 203.645C669.931 205.773 669.882 205.889 668.914 205.087C667.478 203.897 666.096 205.132 667.274 206.552C667.744 207.119 667.804 207.508 667.422 207.508C667.068 207.508 666.34 207.676 665.804 207.881C665.086 208.157 664.505 207.495 663.588 205.354V205.354ZM550.724 206.449C550.032 205.324 549.639 200.276 550.139 198.937C550.669 197.517 550.709 197.534 552.286 199.866C554.176 202.661 554.781 204.454 554.157 205.411C553.56 206.327 551.106 207.069 550.724 206.449ZM688.961 203.245C688.961 202.904 689.24 202.453 689.58 202.243C689.921 202.032 690.199 202.138 690.199 202.479C690.199 202.82 689.921 203.271 689.58 203.481C689.24 203.692 688.961 203.585 688.961 203.245ZM786.146 203.172C786.146 202.831 786.269 202.552 786.419 202.552C786.569 202.552 786.864 202.831 787.075 203.172C787.285 203.512 787.162 203.791 786.802 203.791C786.441 203.791 786.146 203.512 786.146 203.172ZM645.63 199.593C645.63 199.328 646.871 197.725 648.388 196.031C650.611 193.549 651.151 193.198 651.174 194.224C651.189 194.924 650.259 196.526 649.106 197.785C647.152 199.92 645.63 200.712 645.63 199.593V199.593ZM659.038 197.94C658.812 197.352 658.858 196.459 659.139 195.956C659.576 195.176 659.757 195.168 660.368 195.905C660.915 196.565 660.891 197.034 660.266 197.889C659.499 198.939 659.422 198.943 659.038 197.94V197.94ZM185.004 195.527C185.383 195.069 185.51 194.512 185.286 194.288C185.062 194.064 185.456 193.88 186.162 193.88C187.14 193.88 187.368 194.174 187.121 195.119C186.933 195.839 186.277 196.358 185.556 196.358C184.588 196.358 184.466 196.175 185.004 195.527ZM663.191 195.363C662.961 194.718 662.659 193.981 662.521 193.725C662.383 193.47 662.533 193.261 662.854 193.261C663.471 193.261 664.341 195.804 663.881 196.265C663.733 196.414 663.422 196.008 663.191 195.363V195.363ZM656.919 193.747C656.049 192.698 656.896 191.206 658.196 191.496C659.012 191.679 659.042 191.936 658.388 193.148C657.756 194.317 657.484 194.428 656.919 193.747V193.747ZM664.237 191.618C663.527 190.714 663.049 189.871 663.175 189.745C663.678 189.241 665.419 190.351 666.344 191.764C667.768 193.938 665.962 193.813 664.237 191.618ZM654.061 189.22C653.51 188.668 653.058 187.896 653.058 187.504C653.058 187.112 653.67 187.403 654.417 188.151C655.164 188.898 655.615 189.67 655.419 189.866C655.223 190.062 654.612 189.771 654.061 189.22ZM168.165 189.131C167.938 188.904 167.753 188.43 167.753 188.078C167.753 187.69 168.041 187.727 168.485 188.171C168.888 188.574 169.074 189.048 168.898 189.224C168.722 189.4 168.392 189.358 168.165 189.131V189.131ZM164.658 188.305C164.658 187.965 164.78 187.686 164.931 187.686C165.081 187.686 165.376 187.965 165.586 188.305C165.797 188.646 165.674 188.925 165.313 188.925C164.953 188.925 164.658 188.646 164.658 188.305ZM193.751 187.067C193.751 186.726 193.874 186.447 194.024 186.447C194.174 186.447 194.469 186.726 194.68 187.067C194.89 187.407 194.767 187.686 194.407 187.686C194.046 187.686 193.751 187.407 193.751 187.067ZM660.287 186.972C659.667 186.622 658.49 186.503 657.673 186.709C656.474 187.01 655.648 186.527 653.404 184.217C650.235 180.954 649.618 179.578 650.548 177.839C650.907 177.167 651.201 175.78 651.201 174.755C651.201 171.393 653.452 171.529 655.102 174.991C656.016 176.909 656.022 177.321 655.163 179.378C654.238 181.593 654.256 181.691 655.906 183.414C657.097 184.659 657.991 185.081 658.933 184.845C659.729 184.645 660.587 184.893 661.055 185.457C662.17 186.801 661.684 187.76 660.287 186.972H660.287ZM190.037 183.077C190.037 182.927 190.316 182.631 190.656 182.421C190.997 182.21 191.275 182.333 191.275 182.694C191.275 183.055 190.997 183.35 190.656 183.35C190.316 183.35 190.037 183.227 190.037 183.077V183.077ZM287.222 180.872C287.222 180.532 287.501 180.253 287.841 180.253C288.182 180.253 288.46 180.532 288.46 180.872C288.46 181.213 288.182 181.492 287.841 181.492C287.501 181.492 287.222 181.213 287.222 180.872ZM188.18 178.468C188.18 178.127 188.459 177.676 188.799 177.465C189.14 177.255 189.418 177.361 189.418 177.702C189.418 178.043 189.14 178.494 188.799 178.704C188.459 178.915 188.18 178.808 188.18 178.468ZM182.923 175.924C182.706 175.573 182.955 175.469 183.505 175.681C184.578 176.092 184.774 176.536 183.884 176.536C183.563 176.536 183.131 176.261 182.923 175.924ZM281.341 175.917C281.131 175.576 281.254 175.297 281.614 175.297C281.975 175.297 282.27 175.576 282.27 175.917C282.27 176.258 282.147 176.536 281.997 176.536C281.847 176.536 281.552 176.258 281.341 175.917V175.917ZM185.395 174.678C185.184 174.337 185.307 174.059 185.668 174.059C186.028 174.059 186.323 174.337 186.323 174.678C186.323 175.019 186.2 175.297 186.05 175.297C185.9 175.297 185.605 175.019 185.395 174.678ZM188.18 174.678C188.18 174.337 188.303 174.059 188.453 174.059C188.603 174.059 188.898 174.337 189.109 174.678C189.319 175.019 189.196 175.297 188.836 175.297C188.475 175.297 188.18 175.019 188.18 174.678ZM145.623 173.029C145.197 172.857 144.849 172.461 144.849 172.149C144.849 171.256 147.582 171.486 148.909 172.49C150.051 173.354 150.018 173.398 148.254 173.371C147.232 173.355 146.049 173.201 145.623 173.029V173.029ZM161.287 172.678C160.731 172.367 159.505 172.282 158.561 172.489C157.617 172.697 156.165 172.595 155.335 172.262C154 171.728 154.118 171.665 156.357 171.717C159.648 171.794 160.527 171.258 159.685 169.685C159.088 168.569 159.268 168.484 162.221 168.484C165.078 168.484 169.199 169.795 169.897 170.926C170.362 171.678 162.395 173.298 161.287 172.678ZM173.16 173.069C172.427 172.335 173.339 171.581 174.959 171.581C175.933 171.581 176.426 171.873 176.267 172.355C175.982 173.222 173.812 173.721 173.16 173.069ZM621.001 172.084C619.362 170.444 620.985 168.484 623.981 168.484C625.31 168.484 625.311 168.495 624.171 170.447C622.842 172.723 622.049 173.133 621.001 172.084ZM178.276 171.957C178.276 171.823 178.694 171.553 179.204 171.357C179.715 171.161 180.133 171.27 180.133 171.6C180.133 171.93 179.715 172.2 179.204 172.2C178.694 172.2 178.276 172.091 178.276 171.957V171.957ZM151.517 167.517C151.326 167.325 150.02 167.153 148.614 167.134C146.674 167.107 146.208 166.916 146.684 166.342C147.144 165.788 146.484 165.05 144.208 163.574C139.746 160.681 137.255 160.115 134.257 161.316C131.446 162.441 131.231 162.473 131.231 161.764C131.231 160.468 136.157 159.042 139.705 159.312C143.098 159.57 144.997 160.292 151.658 163.858C157.134 166.789 157.14 166.795 155.372 167.299C153.366 167.872 151.952 167.952 151.517 167.517V167.517ZM155.991 162.289C157.192 161.513 157.848 161.513 157.848 162.289C157.848 162.63 157.222 162.905 156.456 162.899C155.329 162.892 155.241 162.775 155.991 162.289ZM648.973 161.191C648.598 160.943 647.954 160.1 647.541 159.316C646.919 158.134 646.984 157.56 647.919 155.959C649.363 153.485 650.338 153.176 650.806 155.044C651.299 157.01 649.874 161.787 648.973 161.191V161.191ZM160.056 160.365C160.469 159.696 162.801 159.621 162.8 160.276C162.8 160.532 162.105 160.781 161.257 160.83C160.408 160.879 159.868 160.67 160.056 160.365V160.365ZM147.815 154.396C146.825 153.259 146.969 151.759 148.068 151.759C148.42 151.759 148.565 152.303 148.392 152.968C148.218 153.633 148.394 154.292 148.784 154.432C149.173 154.572 149.328 154.866 149.127 155.085C148.926 155.304 148.336 154.994 147.815 154.396V154.396ZM151.411 149.529C151.19 148.955 151.149 148.345 151.32 148.175C151.49 148.005 151.809 148.335 152.03 148.91C152.25 149.484 152.291 150.094 152.121 150.264C151.951 150.434 151.631 150.104 151.411 149.529ZM147.532 148.972C147.532 148.461 148.062 148.043 148.711 148.043C149.759 148.043 149.787 148.146 148.961 148.972C148.451 149.483 147.92 149.901 147.782 149.901C147.644 149.901 147.532 149.483 147.532 148.972V148.972ZM666.677 135.392C666.677 134.907 666.001 133.706 665.174 132.723C663.212 130.39 663.907 128.833 666.23 130.356C667.901 131.451 668.774 133.689 668.158 135.295C667.69 136.514 666.677 136.58 666.677 135.392V135.392ZM186.323 131.664C186.323 131.514 186.602 131.219 186.942 131.008C187.283 130.798 187.561 130.921 187.561 131.282C187.561 131.642 187.283 131.938 186.942 131.938C186.602 131.938 186.323 131.815 186.323 131.664ZM670.127 130.903C669.725 129.857 670.673 128.867 672.093 128.85C673.077 128.838 673.095 130.223 672.124 131.194C671.115 132.204 670.597 132.129 670.127 130.903ZM675.782 128.642C674.58 126.807 672.883 126.555 668.996 127.635C667.416 128.074 666.327 128.079 665.592 127.65C664.997 127.303 664.837 127.011 665.237 127.001C665.636 126.991 666.802 126.276 667.828 125.412C669.151 124.298 670.121 123.949 671.166 124.212C672.274 124.49 673.47 123.957 675.985 122.066C680.883 118.384 681.325 117.223 679.333 113.289C677.421 109.512 677.954 108.297 680.787 109.971C682.85 111.19 684.793 114.682 684.228 116.155C684.025 116.684 684.328 118.347 684.901 119.85C685.713 121.976 685.79 122.87 685.248 123.883C684.453 125.369 682.241 126.363 679.725 126.363C678.316 126.363 677.894 126.725 677.434 128.332L676.869 130.302L675.782 128.642V128.642ZM425.014 126.528C424.275 125.788 424.668 125.124 425.844 125.124C426.505 125.124 427.218 124.845 427.428 124.504C428.004 123.573 428.985 123.76 428.613 124.73C428.231 125.726 425.551 127.065 425.014 126.528ZM403.906 125.456L402.049 124.605L404.525 124.563C407.609 124.511 409.881 125.09 409.434 125.814C408.936 126.62 406.037 126.432 403.906 125.456V125.456ZM378.9 119.277C376.423 118.008 376.306 117.849 377.599 117.511C379.148 117.106 382.577 117.61 382.507 118.233C382.483 118.446 382.274 119.081 382.042 119.645C381.662 120.573 381.361 120.537 378.9 119.277V119.277ZM366.493 112.575C365.957 111.038 365.999 110.449 366.695 109.752C367.954 108.493 368.932 109.378 368.932 111.776C368.932 114.609 367.379 115.118 366.493 112.575V112.575ZM351.977 113.09C352.416 111.945 354.3 111.751 353.921 112.89C353.779 113.316 353.2 113.754 352.634 113.864C351.915 114.004 351.717 113.769 351.977 113.09V113.09ZM675.413 106.02C674.28 104.427 674.248 104.134 675.085 102.939C675.907 101.764 675.904 101.412 675.058 99.7739C673.665 97.0792 673.861 96.9162 676.275 98.7593C677.469 99.6705 679.825 100.826 681.51 101.327C684.993 102.362 685.834 103.174 684.018 103.751C683.332 103.969 682.771 104.551 682.771 105.046C682.771 105.72 682.344 105.836 681.069 105.509C677.803 104.673 676.874 104.877 677.084 106.386C677.341 108.235 676.924 108.144 675.413 106.02H675.413ZM367.487 106.748C366.769 106.029 367.04 104.829 368.003 104.459C368.674 104.201 368.932 104.527 368.932 105.631C368.932 107.118 368.326 107.587 367.487 106.748ZM671.485 93.688C670.96 93.0918 669.694 90.931 668.672 88.8862C667.65 86.8415 664.948 83.0865 662.668 80.5419C660.121 77.6989 658.826 75.8139 659.31 75.6524C659.744 75.5078 660.673 76.1555 661.376 77.0917C663.079 79.3611 665.176 81.3317 668.485 83.772C671.228 85.7947 672.585 87.667 670.815 86.9873C668.774 86.2036 669.283 88.0638 671.924 91.0396C673.464 92.7745 674.724 94.324 674.724 94.4829C674.724 95.2363 672.332 94.6491 671.485 93.688ZM218.512 92.604C218.512 92.0929 218.782 91.6748 219.111 91.6748C219.441 91.6748 219.551 92.0929 219.355 92.604C219.159 93.115 218.889 93.5331 218.755 93.5331C218.621 93.5331 218.512 93.115 218.512 92.604ZM215.277 90.6051L212.971 90.363L217.311 86.0635C219.697 83.6988 221.962 81.764 222.343 81.764C222.746 81.764 222.625 82.2191 222.056 82.8484C220.767 84.2733 221.646 85.8741 224.001 86.3917C225.029 86.6177 226.054 87.4061 226.45 88.2758C227.085 89.6717 226.978 89.8139 224.833 90.4099C222.583 91.0352 219.897 91.0901 215.277 90.6051V90.6051ZM64.4431 86.1612C62.2988 84.1568 62.0596 83.3124 63.4815 82.7664C64.7548 82.2774 67.1054 83.8715 67.9963 85.8281C68.9311 87.8812 68.9145 87.9583 67.5381 87.9583C66.8932 87.9583 65.5004 87.1496 64.4431 86.1612ZM337.053 83.0141C337.734 82.678 339.073 82.1204 340.03 81.775C342.138 81.0138 341.789 80.2032 339.123 79.6696C337.294 79.3036 337.229 79.2104 338.276 78.4447C338.899 77.9889 339.227 77.3221 339.005 76.9629C338.778 76.596 339.415 76.0261 340.458 75.6623C341.479 75.3062 342.314 74.7397 342.314 74.4034C342.314 72.9727 341.024 70.5659 340.307 70.6595C338.655 70.8752 337.889 70.5836 338.155 69.84C338.308 69.4142 338.182 68.578 337.876 67.9818C337.079 66.4315 338.91 63.2255 340.612 63.1907C340.867 63.186 341.007 63.523 340.921 63.9408C340.836 64.3585 341.42 64.7996 342.22 64.9209L343.672 65.1414L342.284 66.6201L340.896 68.0987L342.461 68.6941C344.141 69.3331 345.759 71.415 347.408 75.0559C348.198 76.8004 348.717 77.2564 349.639 77.0151C351.531 76.5201 351.755 77.8029 349.98 78.9665C348.778 79.7548 348.55 80.199 349.076 80.726C349.603 81.253 348.565 81.6066 344.964 82.1266C342.315 82.5091 339.173 83.0028 337.981 83.2236C336.324 83.5307 336.106 83.4815 337.053 83.0141V83.0141ZM326.614 79.5924C326.402 79.0402 326.643 77.7856 327.151 76.8045C327.732 75.6788 327.845 74.8799 327.456 74.6392C326.383 73.9758 326.785 73.1291 328.361 72.7333C329.198 72.5231 330.207 71.9603 330.603 71.4827C331.428 70.4884 335.241 70.3054 335.814 71.2327C336.024 71.5728 335.762 72.471 335.231 73.2288C334.701 73.9866 334.267 75.3477 334.267 76.2536C334.267 77.635 333.843 78.048 331.636 78.8144C330.189 79.317 328.554 79.9235 328.002 80.1623C327.355 80.4422 326.862 80.2399 326.614 79.5924V79.5924ZM337.981 73.4383C337.981 73.2881 338.26 72.9929 338.6 72.7823C338.941 72.5718 339.219 72.6947 339.219 73.0555C339.219 73.4163 338.941 73.7115 338.6 73.7115C338.26 73.7115 337.981 73.5885 337.981 73.4383ZM63.2633 70.4537C62.6569 69.7226 62.6955 69.3819 63.4564 68.75C64.7144 67.7052 65.3383 68.4139 64.6062 70.0559C64.1012 71.1882 63.9176 71.2427 63.2633 70.4537V70.4537ZM62.2952 65.7952C62.0862 65.4568 62.3299 64.8354 62.8369 64.4144C63.8433 63.5786 64.0535 64.2341 63.2075 65.5702C62.8842 66.0807 62.5261 66.169 62.2952 65.7952ZM22.2847 65.4001C22.2847 64.9644 24.1617 64.2023 26.8245 63.5568C27.8339 63.3121 28.4306 63.3711 28.2301 63.6958C28.0384 64.0061 27.1098 64.4159 26.1665 64.6064C25.2231 64.7969 23.9638 65.1414 23.368 65.3721C22.7722 65.6028 22.2847 65.6154 22.2847 65.4002V65.4001ZM390.133 58.435C388.991 57.9739 389.193 57.2631 390.494 57.165C391.118 57.118 391.629 57.4768 391.629 57.9623C391.629 58.8846 391.414 58.9524 390.133 58.435ZM254.105 55.269C250.188 53.1315 248.315 49.8473 249.45 47.1053C249.987 45.8075 250.004 44.9915 249.511 44.0706C248.486 42.154 249.824 39.9079 253.244 37.8021C254.868 36.8018 256.49 35.436 256.848 34.7668C257.84 32.9128 256.957 29.7357 255.231 28.949C254.358 28.5508 253.882 27.9212 254.075 27.418C254.515 26.2721 252.454 22.3583 250.401 20.4408C248.89 19.0294 248.241 18.8889 243.068 18.855C236.023 18.8088 234.711 18.417 234.828 16.3944C234.876 15.5542 235.062 14.8666 235.241 14.8664C235.42 14.8661 237.927 14.5754 240.812 14.2203C244.496 13.7669 247.799 12.8318 251.904 11.0797C258.261 8.36708 258.746 8.31407 273.913 8.67082C278.703 8.78347 283.109 8.42877 288.77 7.47489C294.041 6.58657 297.92 6.25171 300.014 6.5041C301.794 6.71856 304.37 6.57711 305.825 6.18513C309.201 5.27551 317.972 6.3697 321.422 8.13082C323.461 9.17197 324.54 9.30945 327.982 8.96661C331.699 8.59629 331.98 8.645 330.862 9.46616C330.182 9.96659 328.092 10.5779 326.22 10.8246C322.157 11.36 318.423 14.2579 319.413 16.1083C319.84 16.9065 319.533 17.5877 318.153 18.9108C317.15 19.8723 316.183 21.1217 316.004 21.6873C315.573 23.0461 310.1 25.575 307.387 25.6693C304.373 25.774 304.058 26.4151 306.389 27.6997C307.49 28.3065 309.097 29.3405 309.96 29.9974L311.53 31.1918L310.111 31.7172C309.023 32.1198 308.14 31.8602 306.33 30.6049C303.874 28.9014 301.231 28.8929 302.641 30.593C303.191 31.256 303.058 31.5135 302.029 31.7828C299.729 32.3848 301.356 33.5751 303.893 33.1462C305.508 32.8732 306.416 33.0171 306.921 33.6259C307.521 34.3502 306.738 34.6856 302.229 35.6339C299.252 36.26 295.285 36.7952 293.412 36.8232C289.934 36.8752 287.427 37.8745 283.739 40.6792C282.537 41.5937 279.981 42.5001 276.991 43.0726C270.741 44.2692 268.629 45.6531 264.863 51.019C261.838 55.3289 260.015 56.9353 258.129 56.9505C257.618 56.9547 255.807 56.198 254.105 55.269V55.269ZM210.214 51.1262C208.885 50.3089 207.256 48.7845 206.594 47.7387C205.302 45.697 204.111 45.4377 200.624 46.4385C199.443 46.7773 198.118 46.81 197.588 46.5133C195.755 45.4868 199.066 44.4773 202.754 44.9383C205.558 45.2889 206.181 45.189 206.508 44.3362C207.165 42.6228 210.173 41.3948 211.845 42.1572C212.874 42.6265 213.81 42.6134 215.125 42.1113C216.893 41.4357 216.918 41.3747 215.763 40.5258C215.102 40.0403 214.347 39.643 214.086 39.643C213.825 39.643 212.883 38.3986 211.992 36.8777C211.102 35.3569 209.432 33.5308 208.283 32.8198C206.329 31.6115 206.07 31.5902 204.323 32.4945C202.795 33.2851 201.912 33.3405 199.495 32.7973C197.868 32.4317 195.596 32.3086 194.447 32.5237C192.453 32.8968 188.799 31.9203 188.799 31.0142C188.799 29.3497 194.042 25.6141 197.156 25.0596L199.632 24.6187L197.862 26.5057C195.42 29.1086 196.339 30.3066 198.99 27.9772C200.114 26.9891 202.058 25.9885 203.309 25.7536C205.221 25.3948 206.04 25.6288 208.44 27.2197C211.633 29.3364 211.879 29.3932 213.68 28.4287C214.765 27.8479 215.167 28.0074 216.345 29.4854C217.159 30.5077 218.979 31.6209 220.753 32.1826C223.58 33.0778 223.773 33.2725 223.773 35.2238C223.773 36.6871 224.195 37.6104 225.188 38.321C229.342 41.2939 229.251 41.1711 228.353 42.6113C227.12 44.5862 226.147 44.7293 223.419 43.3368C221.522 42.368 220.693 42.2352 219.737 42.7468C218.568 43.3728 218.556 43.5065 219.497 45.3274C220.269 46.8218 220.34 47.5764 219.815 48.729C219.168 50.1492 219.065 50.1711 217.309 49.2625C213.857 47.4763 211.533 48.6517 214.753 50.5551C215.762 51.1515 216.447 51.867 216.275 52.1452C215.675 53.1159 212.613 52.601 210.214 51.1262V51.1262ZM337.362 51.9283C337.362 51.6444 337.78 51.4121 338.291 51.4121C338.801 51.4121 339.219 51.6444 339.219 51.9283C339.219 52.2122 338.801 52.4445 338.291 52.4445C337.78 52.4445 337.362 52.2122 337.362 51.9283ZM186.874 48.597C185.654 47.955 184.706 47.9001 182.997 48.3722C180.092 49.1751 179.076 48.5876 180.55 46.9572C182.438 44.8701 183.718 44.4596 185.994 45.2115C188.557 46.0577 189.694 47.3155 189.003 48.5387C188.562 49.3185 188.261 49.3268 186.874 48.597V48.597ZM309.816 48.315C308.795 47.6429 307.495 47.2401 306.927 47.4198C306.145 47.6672 305.972 47.4524 306.212 46.5343C306.58 45.125 312.019 43.091 313.858 43.6749C314.499 43.8785 316.137 43.7111 317.498 43.303C319.636 42.6622 320.202 42.7107 321.647 43.658L323.32 44.7552L321.83 45.9176C320.572 46.8987 318.238 47.7499 312.602 49.2841C312.091 49.4231 310.837 48.987 309.816 48.315V48.315ZM141.754 36.7518C140.903 36.6172 138.83 35.8886 137.147 35.1328L134.087 33.7584L138.385 33.4487C140.749 33.2784 142.683 32.8603 142.683 32.5196C142.683 32.1789 141.011 31.7508 138.969 31.5682C136.272 31.3271 135.763 31.1575 137.112 30.9487C139.369 30.5993 139.532 29.6207 137.421 29.0872C135.901 28.703 135.912 28.6796 138.05 27.7576C141.756 26.1597 145.704 25.8537 149.201 26.8929C152.073 27.7462 152.521 27.7426 153.875 26.855C154.832 26.2272 155.4 26.1222 155.45 26.5638C155.492 26.9436 155.562 27.5796 155.605 27.9771C155.748 29.319 156.983 29.1454 158.456 27.5761C159.82 26.1233 162.184 25.4273 162.179 26.4802C162.178 26.7357 161.627 27.8468 160.956 28.9494L159.734 30.954L161.732 31.9968L163.729 33.0396L160.449 34.5376C157.49 35.8894 156.883 35.9667 154.23 35.3299C151.657 34.7124 150.919 34.783 148.328 35.8947C145.4 37.1504 144.783 37.2308 141.754 36.7518V36.7518ZM166.58 36.3154C166.021 35.6413 166.252 35.3095 167.697 34.7106C168.703 34.2938 170.145 34.1548 170.919 34.4003C172.259 34.8261 172.228 34.8931 170.19 35.9792C167.59 37.3648 167.461 37.3769 166.58 36.3154V36.3154ZM337.362 33.4487C338.562 32.6726 339.219 32.6726 339.219 33.4487C339.219 33.7894 338.592 34.0639 337.826 34.0587C336.7 34.051 336.611 33.9343 337.362 33.4487V33.4487ZM450.951 31.7302C447.786 30.4793 447.851 30.5477 448.772 29.4374C449.203 28.9182 449.312 28.4844 449.015 28.4736C448.718 28.4628 449.032 28.0327 449.713 27.5178C450.394 27.003 450.956 26.3847 450.961 26.1438C450.983 25.2276 453.503 22.8115 455.284 21.9996C456.305 21.534 458.952 21.0091 461.165 20.8333C463.378 20.6575 466.342 20.3354 467.752 20.1175C469.252 19.8857 470.475 19.9805 470.701 20.3462C471.14 21.0568 470.302 21.3589 465.498 22.2226C460.73 23.0797 457.865 24.4153 455.977 26.6599C453.989 29.0245 453.922 30.5175 455.748 31.7921L457.141 32.7643L455.284 32.7366C454.263 32.7214 452.313 32.2685 450.951 31.7302V31.7302ZM126.746 29.9342C125.748 28.9353 125.975 28.7178 130.765 26.094C136.377 23.0199 139.197 22.6118 144.23 24.1453L147.016 24.994L143.302 25.7309C140.264 26.3336 133.827 28.4876 128.744 30.6023C128.225 30.818 127.33 30.5187 126.746 29.9342V29.9342ZM171.467 29.1325C171.467 28.8027 170.701 28.0929 169.764 27.5552L168.062 26.5775L170.341 26.9361C171.961 27.191 172.767 27.0392 173.127 26.4117C173.555 25.6654 177.495 24.1721 179.066 24.1608C179.33 24.1587 179.114 24.9926 178.587 26.0135C177.344 28.418 171.467 30.9926 171.467 29.1325V29.1325ZM181.104 27.3239C180.217 25.888 186.275 23.6652 188.848 24.4824C190.723 25.078 189.469 26.1014 186.199 26.6455C184.735 26.8889 183.078 27.2839 182.517 27.5232C181.955 27.7625 181.32 27.6729 181.104 27.3239ZM200.87 22.7626C196.784 22.4374 193.366 22.1006 193.272 22.0141C192.719 21.5002 194.099 19.8273 195.585 19.2115C197.046 18.606 197.719 18.6864 199.719 19.7049C201.668 20.6976 202.925 20.8627 206.546 20.6015C208.987 20.4255 211.772 20.4811 212.736 20.7252L214.488 21.169L212.322 22.3275C211.13 22.9646 209.737 23.4562 209.227 23.4199C208.716 23.3836 204.955 23.0878 200.87 22.7626ZM379.008 20.2311C375.967 18.6733 375.674 17.9669 378.062 17.9536C378.998 17.9483 380.182 17.6433 380.693 17.2757C381.496 16.6979 381.485 16.6507 380.614 16.9271C380.059 17.1029 379.282 16.9223 378.886 16.5261C378.338 15.9781 378.053 15.9878 377.695 16.5666C377.364 17.1025 376.685 17.1659 375.4 16.7808C372.136 15.8026 371.408 15.3684 371.408 14.3985C371.408 13.577 372.226 13.5018 377.288 13.8578C381.144 14.129 383.169 14.0539 383.169 13.6396C383.169 12.4202 384.887 13.0223 385.342 14.4013L385.802 15.795L386.076 14.4013C386.227 13.6348 386.749 13.0076 387.236 13.0076C387.723 13.0076 388.121 12.6731 388.121 12.2643C388.121 11.6862 388.286 11.6862 388.864 12.2643C389.296 12.6967 391.368 13.0076 393.816 13.0076C398.242 13.0076 399.281 13.7994 396.33 14.9223C394.796 15.5059 392.128 15.3408 389.204 14.4814C388.609 14.3063 388.123 14.3908 388.125 14.6693C388.129 15.241 391.607 17.3436 392.549 17.3436C392.886 17.3436 393.552 17.7347 394.03 18.2126C394.775 18.9583 394.769 19.1313 393.986 19.432C393.484 19.6248 393.073 19.4814 393.073 19.1135C393.073 18.681 392.286 18.5924 390.846 18.8628C389.286 19.1555 388.745 19.0752 389.042 18.5948C389.275 18.2175 389.129 17.5029 388.718 17.0068C387.924 16.0497 385.645 15.7567 385.645 16.6117C385.645 16.8905 384.74 18.1201 383.633 19.3443L381.622 21.57L379.008 20.2311L379.008 20.2311ZM214.798 18.8684C213.725 18.238 212.206 18.0554 209.846 18.2728C207.639 18.4759 205.942 18.3008 205.023 17.775C203.757 17.0501 204.066 16.9675 207.932 16.9989C212.767 17.038 214.89 16.0025 212.272 14.8823C211.028 14.3502 211.209 14.3019 213.341 14.5974C216.125 14.9833 217.207 14.2371 215.69 12.9777C214.073 11.6347 215.851 11.2178 221.605 11.5908C225.165 11.8217 227.402 11.6922 228.317 11.2024C230.069 10.2641 229.381 9.06977 227.379 9.57272C225.995 9.92032 216.39 9.34992 216.795 8.94421C217.085 8.65426 230.693 7.3931 239.628 6.82808C244.263 6.53501 249.416 6.12619 251.08 5.91959L254.105 5.54395L249.111 7.9441C244.43 10.1944 236.816 12.3882 233.689 12.3882C232.927 12.3882 230.738 13.2244 228.824 14.2465C226.91 15.2685 224.96 16.1048 224.491 16.1048C224.022 16.1048 221.997 16.9375 219.992 17.9552C217.986 18.9729 216.345 19.7993 216.345 19.7915C216.345 19.7838 215.649 19.3684 214.798 18.8684V18.8684ZM202.727 13.2092C199.727 12.545 199.617 12.2951 201.821 11.1517C205.035 9.48508 208.076 9.05792 209.458 10.0789C210.553 10.8873 210.49 11.0122 208.34 12.2815C206.099 13.6043 205.19 13.7546 202.727 13.2092V13.2092Z" fill="#F4F4F4"/>
</svg>
